<svg width="24" height="24" viewBox="0 0 24 24" fill="none" xmlns="http://www.w3.org/2000/svg">
    <mask id="rlfna713xa" style="mask-type:alpha" maskUnits="userSpaceOnUse" x="0" y="0" width="24" height="24">
        <path fill="#0081ea" d="M0 0h24v24H0z"/>
    </mask>
    <g mask="url(#rlfna713xa)">
        <path d="M14 17h5v-5h-2v3h-3v2zm-9-5h2V9h3V7H5v5zm-1 8c-.55 0-1.02-.196-1.413-.587A1.926 1.926 0 0 1 2 18V6c0-.55.196-1.02.587-1.412A1.926 1.926 0 0 1 4 4h16c.55 0 1.02.196 1.413.588.391.391.587.862.587 1.412v12c0 .55-.196 1.02-.587 1.413A1.926 1.926 0 0 1 20 20H4zm0-2h16V6H4v12z" fill="#0081ea"/>
    </g>
</svg>
